<svg width="144" height="68" viewBox="0 0 144 68" fill="none" xmlns="http://www.w3.org/2000/svg">
<path d="M0.754684 0.984375H16.6746V4.67676H10.9041V24.3262H16.6746V28H0.754684V24.3262H6.39531V4.67676H0.754684V0.984375ZM38.7918 15.8838H27.6219V24.3262H40.6658V28H23.1502V0.984375H40.573V4.67676H27.6219V12.2842H38.7918V15.8838ZM61.6141 15.8838H50.4441V24.3262H63.4881V28H45.9725V0.984375H63.3953V4.67676H50.4441V12.2842H61.6141V15.8838ZM84.4363 15.8838H73.2664V24.3262H86.3103V28H68.7947V0.984375H86.2176V4.67676H73.2664V12.2842H84.4363V15.8838ZM120.369 0.984375L120.388 19.0566C120.388 20.4544 120.171 21.7285 119.738 22.8789C119.318 24.0169 118.718 24.9941 117.939 25.8105C117.147 26.627 116.195 27.2578 115.081 27.7031C113.98 28.1484 112.743 28.3711 111.37 28.3711C110.022 28.3711 108.804 28.1546 107.715 27.7217C106.626 27.2764 105.699 26.6455 104.932 25.8291C104.153 25.0127 103.546 24.0293 103.113 22.8789C102.693 21.7285 102.476 20.4544 102.464 19.0566L102.501 0.984375H106.899L106.936 19.0566C106.948 19.9102 107.053 20.6956 107.251 21.4131C107.449 22.1182 107.74 22.7181 108.123 23.2129C108.494 23.6829 108.946 24.054 109.478 24.3262C110.022 24.5859 110.653 24.7158 111.37 24.7158C112.1 24.7158 112.743 24.5859 113.3 24.3262C113.869 24.054 114.345 23.6706 114.729 23.1758C115.112 22.6686 115.403 22.0687 115.601 21.376C115.799 20.6709 115.91 19.8978 115.935 19.0566L115.972 0.984375H120.369ZM143.86 19.6875C143.736 20.9987 143.427 22.1924 142.932 23.2686C142.437 24.3324 141.788 25.2415 140.984 25.9961C140.167 26.763 139.196 27.3568 138.07 27.7773C136.957 28.1855 135.72 28.3896 134.36 28.3896C133.246 28.3896 132.22 28.2412 131.279 27.9443C130.352 27.6351 129.523 27.2021 128.793 26.6455C128.088 26.126 127.47 25.5013 126.938 24.7715C126.418 24.0293 125.979 23.2191 125.62 22.3408C125.262 21.4749 124.989 20.5348 124.804 19.5205C124.631 18.5062 124.544 17.4486 124.544 16.3477V12.6553C124.544 11.6038 124.631 10.5895 124.804 9.6123C124.977 8.63509 125.237 7.71354 125.583 6.84766C125.954 5.88281 126.431 5.01074 127.012 4.23145C127.606 3.43978 128.286 2.76562 129.053 2.20898C129.783 1.70182 130.587 1.30599 131.465 1.02148C132.356 0.736979 133.327 0.594727 134.378 0.594727C135.801 0.594727 137.069 0.805013 138.182 1.22559C139.307 1.64616 140.266 2.23991 141.058 3.00684C141.862 3.78613 142.493 4.72624 142.95 5.82715C143.42 6.92806 143.723 8.15267 143.86 9.50098H139.406C139.332 8.69694 139.178 7.97331 138.943 7.33008C138.72 6.67448 138.411 6.11784 138.015 5.66016C137.607 5.20247 137.106 4.85612 136.512 4.62109C135.918 4.3737 135.207 4.25 134.378 4.25C133.797 4.25 133.271 4.3304 132.801 4.49121C132.343 4.65202 131.935 4.88086 131.576 5.17773C131.082 5.53646 130.667 6.00651 130.333 6.58789C130.012 7.1569 129.746 7.79395 129.535 8.49902C129.375 9.11751 129.251 9.7793 129.164 10.4844C129.09 11.1771 129.053 11.8883 129.053 12.6182V16.3477C129.053 17.2507 129.102 18.098 129.201 18.8896C129.313 19.6813 129.48 20.4049 129.702 21.0605C129.876 21.6048 130.092 22.0996 130.352 22.5449C130.624 22.9902 130.945 23.3737 131.317 23.6953C131.7 24.0417 132.139 24.3076 132.634 24.4932C133.141 24.6663 133.716 24.7529 134.36 24.7529C135.126 24.7529 135.807 24.6416 136.401 24.4189C136.994 24.1963 137.501 23.8685 137.922 23.4355C138.33 23.015 138.658 22.4893 138.905 21.8584C139.153 21.2275 139.314 20.5039 139.388 19.6875H143.86ZM41.6455 68L38.1201 40.9844H42.2578L44.1133 57.5723L44.2432 58.6299L44.4287 57.5166L47.0264 40.9844H50.4404L53.1309 57.5908L53.3164 58.7041L53.4463 57.5723L55.3203 40.9844H59.4766L55.9141 68H51.7021L48.9561 51.4678L48.7705 50.1875L48.5664 51.4678L45.8574 68H41.6455ZM63.5215 40.9844H79.4414V44.6768H73.6709V64.3262H79.4414V68H63.5215V64.3262H69.1621V44.6768H63.5215V40.9844ZM101.559 55.8838H90.3887V64.3262H103.433V68H85.917V40.9844H103.34V44.6768H90.3887V52.2842H101.559V55.8838Z" fill="black"/>
</svg>
