<svg width="133" height="29" viewBox="0 0 133 29" fill="none" xmlns="http://www.w3.org/2000/svg">
<path d="M4.58496 17.7021V28H0.131836V0.984375H9.16797C10.5286 0.996745 11.778 1.20085 12.916 1.59668C14.0664 1.99251 15.056 2.55534 15.8848 3.28516C16.7135 4.01497 17.3568 4.89941 17.8145 5.93848C18.2721 6.97754 18.501 8.14648 18.501 9.44531C18.501 10.6947 18.2721 11.8265 17.8145 12.8408C17.3568 13.8428 16.7135 14.7025 15.8848 15.4199C15.056 16.1497 14.0664 16.7126 12.916 17.1084C11.778 17.5042 10.5286 17.7021 9.16797 17.7021H4.58496ZM4.58496 14.0654H9.16797C9.92253 14.0531 10.5967 13.9355 11.1904 13.7129C11.7965 13.4779 12.3099 13.1562 12.7305 12.748C13.151 12.3398 13.4665 11.8574 13.6768 11.3008C13.8994 10.7441 14.0107 10.138 14.0107 9.48242C14.0107 8.76497 13.8994 8.11556 13.6768 7.53418C13.4665 6.94043 13.151 6.42708 12.7305 5.99414C12.3099 5.5612 11.7965 5.22721 11.1904 4.99219C10.5967 4.75716 9.92253 4.63346 9.16797 4.62109H4.58496V14.0654ZM23.2881 0.984375H39.208V4.67676H33.4375V24.3262H39.208V28H23.2881V24.3262H28.9287V4.67676H23.2881V0.984375ZM61.3252 15.8838H50.1553V24.3262H63.1992V28H45.6836V0.984375H63.1064V4.67676H50.1553V12.2842H61.3252V15.8838ZM68.0605 28V0.984375H74.7402C75.903 0.984375 76.9977 1.12044 78.0244 1.39258C79.0511 1.65234 79.985 2.01725 80.8262 2.4873C81.7415 2.96973 82.5518 3.57585 83.2568 4.30566C83.9743 5.03548 84.5742 5.85189 85.0566 6.75488C85.5514 7.69499 85.9349 8.72786 86.207 9.85352C86.4792 10.9792 86.6152 12.179 86.6152 13.4531V15.5684C86.6152 16.793 86.4854 17.9557 86.2256 19.0566C85.9782 20.1452 85.6195 21.141 85.1494 22.0439C84.6917 22.9222 84.1351 23.7201 83.4795 24.4375C82.8363 25.1549 82.1188 25.7673 81.3271 26.2744C80.4365 26.8311 79.4469 27.2578 78.3584 27.5547C77.2822 27.8516 76.1257 28 74.8887 28H68.0605ZM72.5693 4.62109V24.3818H74.8887C75.6803 24.3818 76.404 24.2891 77.0596 24.1035C77.7275 23.9056 78.3275 23.6273 78.8594 23.2686C79.4036 22.8975 79.8861 22.4336 80.3066 21.877C80.7396 21.3079 81.0921 20.6585 81.3643 19.9287C81.5993 19.3102 81.7786 18.6361 81.9023 17.9062C82.026 17.1764 82.0879 16.3971 82.0879 15.5684V13.416C82.0879 12.5996 82.026 11.8265 81.9023 11.0967C81.7786 10.3669 81.5993 9.69271 81.3643 9.07422C81.0674 8.31966 80.6715 7.63932 80.1768 7.0332C79.682 6.41471 79.0944 5.91374 78.4141 5.53027C77.9193 5.24577 77.3626 5.0293 76.7441 4.88086C76.1257 4.72005 75.4577 4.63346 74.7402 4.62109H72.5693ZM108.658 0.984375L108.677 19.0566C108.677 20.4544 108.46 21.7285 108.027 22.8789C107.607 24.0169 107.007 24.9941 106.228 25.8105C105.436 26.627 104.483 27.2578 103.37 27.7031C102.269 28.1484 101.032 28.3711 99.6592 28.3711C98.3109 28.3711 97.0924 28.1546 96.0039 27.7217C94.9154 27.2764 93.9876 26.6455 93.2207 25.8291C92.4414 25.0127 91.8353 24.0293 91.4023 22.8789C90.9818 21.7285 90.7653 20.4544 90.7529 19.0566L90.79 0.984375H95.1875L95.2246 19.0566C95.237 19.9102 95.3421 20.6956 95.54 21.4131C95.738 22.1182 96.0286 22.7181 96.4121 23.2129C96.7832 23.6829 97.2347 24.054 97.7666 24.3262C98.3109 24.5859 98.9417 24.7158 99.6592 24.7158C100.389 24.7158 101.032 24.5859 101.589 24.3262C102.158 24.054 102.634 23.6706 103.018 23.1758C103.401 22.6686 103.692 22.0687 103.89 21.376C104.088 20.6709 104.199 19.8978 104.224 19.0566L104.261 0.984375H108.658ZM132.148 19.6875C132.025 20.9987 131.715 22.1924 131.221 23.2686C130.726 24.3324 130.076 25.2415 129.272 25.9961C128.456 26.763 127.485 27.3568 126.359 27.7773C125.246 28.1855 124.009 28.3896 122.648 28.3896C121.535 28.3896 120.508 28.2412 119.568 27.9443C118.641 27.6351 117.812 27.2021 117.082 26.6455C116.377 26.126 115.758 25.5013 115.227 24.7715C114.707 24.0293 114.268 23.2191 113.909 22.3408C113.55 21.4749 113.278 20.5348 113.093 19.5205C112.92 18.5062 112.833 17.4486 112.833 16.3477V12.6553C112.833 11.6038 112.92 10.5895 113.093 9.6123C113.266 8.63509 113.526 7.71354 113.872 6.84766C114.243 5.88281 114.719 5.01074 115.301 4.23145C115.895 3.43978 116.575 2.76562 117.342 2.20898C118.072 1.70182 118.876 1.30599 119.754 1.02148C120.645 0.736979 121.616 0.594727 122.667 0.594727C124.09 0.594727 125.357 0.805013 126.471 1.22559C127.596 1.64616 128.555 2.23991 129.347 3.00684C130.151 3.78613 130.782 4.72624 131.239 5.82715C131.709 6.92806 132.012 8.15267 132.148 9.50098H127.695C127.621 8.69694 127.466 7.97331 127.231 7.33008C127.009 6.67448 126.7 6.11784 126.304 5.66016C125.896 5.20247 125.395 4.85612 124.801 4.62109C124.207 4.3737 123.496 4.25 122.667 4.25C122.086 4.25 121.56 4.3304 121.09 4.49121C120.632 4.65202 120.224 4.88086 119.865 5.17773C119.37 5.53646 118.956 6.00651 118.622 6.58789C118.3 7.1569 118.035 7.79395 117.824 8.49902C117.663 9.11751 117.54 9.7793 117.453 10.4844C117.379 11.1771 117.342 11.8883 117.342 12.6182V16.3477C117.342 17.2507 117.391 18.098 117.49 18.8896C117.602 19.6813 117.769 20.4049 117.991 21.0605C118.164 21.6048 118.381 22.0996 118.641 22.5449C118.913 22.9902 119.234 23.3737 119.605 23.6953C119.989 24.0417 120.428 24.3076 120.923 24.4932C121.43 24.6663 122.005 24.7529 122.648 24.7529C123.415 24.7529 124.096 24.6416 124.689 24.4189C125.283 24.1963 125.79 23.8685 126.211 23.4355C126.619 23.015 126.947 22.4893 127.194 21.8584C127.442 21.2275 127.603 20.5039 127.677 19.6875H132.148Z" fill="black"/>
</svg>
