<svg width="136" height="29" viewBox="0 0 136 29" fill="none" xmlns="http://www.w3.org/2000/svg">
<path d="M15.8809 21.042C15.8809 20.4111 15.751 19.8545 15.4912 19.3721C15.2314 18.8896 14.8665 18.4567 14.3965 18.0732C13.9017 17.7145 13.3141 17.3929 12.6338 17.1084C11.9658 16.8115 11.2174 16.5456 10.3887 16.3105C9.11458 15.9518 7.93945 15.5127 6.86328 14.9932C5.79948 14.4613 4.8903 13.8675 4.13574 13.2119C3.38118 12.5439 2.78743 11.7894 2.35449 10.9482C1.93392 10.0947 1.72363 9.13607 1.72363 8.07227C1.72363 6.92188 1.97103 5.889 2.46582 4.97363C2.96061 4.0459 3.62858 3.25423 4.46973 2.59863C5.31087 1.9554 6.28809 1.4668 7.40137 1.13281C8.52702 0.786458 9.70833 0.613281 10.9453 0.613281C12.2565 0.613281 13.4749 0.817383 14.6006 1.22559C15.7386 1.62142 16.7282 2.17806 17.5693 2.89551C18.4105 3.62533 19.0723 4.4974 19.5547 5.51172C20.0495 6.51367 20.2969 7.62695 20.2969 8.85156H15.8809C15.819 8.17122 15.6706 7.55273 15.4355 6.99609C15.2129 6.42708 14.8975 5.93848 14.4893 5.53027C14.0687 5.13444 13.5553 4.8252 12.9492 4.60254C12.3555 4.36751 11.6689 4.25 10.8896 4.25C10.2093 4.25 9.57845 4.34277 8.99707 4.52832C8.42806 4.7015 7.93327 4.94889 7.5127 5.27051C7.09212 5.60449 6.76432 6.00651 6.5293 6.47656C6.29427 6.94661 6.17676 7.47233 6.17676 8.05371C6.18913 8.6722 6.34993 9.21647 6.65918 9.68652C6.96842 10.1442 7.38281 10.5462 7.90234 10.8926C8.43424 11.2389 9.04036 11.542 9.7207 11.8018C10.4134 12.0615 11.137 12.3027 11.8916 12.5254C12.8441 12.7975 13.7718 13.1377 14.6748 13.5459C15.5902 13.9417 16.4313 14.4242 17.1982 14.9932C18.1507 15.7106 18.9115 16.5703 19.4805 17.5723C20.0618 18.5618 20.3525 19.7061 20.3525 21.0049C20.3525 22.2048 20.099 23.2624 19.5918 24.1777C19.097 25.0931 18.429 25.8538 17.5879 26.46C16.7344 27.0908 15.7448 27.5671 14.6191 27.8887C13.4935 28.1979 12.306 28.3525 11.0566 28.3525C9.73307 28.3525 8.42806 28.1484 7.1416 27.7402C5.85514 27.3197 4.73568 26.7135 3.7832 25.9219C2.90495 25.1797 2.20605 24.3076 1.68652 23.3057C1.17936 22.3037 0.919596 21.1533 0.907227 19.8545H5.36035C5.4222 20.6833 5.59538 21.4069 5.87988 22.0254C6.17676 22.6315 6.57878 23.1325 7.08594 23.5283C7.58073 23.9365 8.16211 24.2396 8.83008 24.4375C9.51042 24.6354 10.2526 24.7344 11.0566 24.7344C11.737 24.7344 12.3678 24.654 12.9492 24.4932C13.543 24.3324 14.0563 24.0911 14.4893 23.7695C14.9098 23.4603 15.2438 23.0768 15.4912 22.6191C15.751 22.1615 15.8809 21.6357 15.8809 21.042ZM42.1914 0.984375L42.21 19.0566C42.21 20.4544 41.9935 21.7285 41.5605 22.8789C41.14 24.0169 40.54 24.9941 39.7607 25.8105C38.9691 26.627 38.0166 27.2578 36.9033 27.7031C35.8024 28.1484 34.5654 28.3711 33.1924 28.3711C31.8441 28.3711 30.6257 28.1546 29.5371 27.7217C28.4486 27.2764 27.5208 26.6455 26.7539 25.8291C25.9746 25.0127 25.3685 24.0293 24.9355 22.8789C24.515 21.7285 24.2985 20.4544 24.2861 19.0566L24.3232 0.984375H28.7207L28.7578 19.0566C28.7702 19.9102 28.8753 20.6956 29.0732 21.4131C29.2712 22.1182 29.5618 22.7181 29.9453 23.2129C30.3164 23.6829 30.7679 24.054 31.2998 24.3262C31.8441 24.5859 32.4749 24.7158 33.1924 24.7158C33.9222 24.7158 34.5654 24.5859 35.1221 24.3262C35.6911 24.054 36.1673 23.6706 36.5508 23.1758C36.9342 22.6686 37.2249 22.0687 37.4229 21.376C37.6208 20.6709 37.7321 19.8978 37.7568 19.0566L37.7939 0.984375H42.1914ZM52.2295 17.7021V28H47.7764V0.984375H56.8125C58.1732 0.996745 59.4225 1.20085 60.5605 1.59668C61.7109 1.99251 62.7005 2.55534 63.5293 3.28516C64.3581 4.01497 65.0013 4.89941 65.459 5.93848C65.9167 6.97754 66.1455 8.14648 66.1455 9.44531C66.1455 10.6947 65.9167 11.8265 65.459 12.8408C65.0013 13.8428 64.3581 14.7025 63.5293 15.4199C62.7005 16.1497 61.7109 16.7126 60.5605 17.1084C59.4225 17.5042 58.1732 17.7021 56.8125 17.7021H52.2295ZM52.2295 14.0654H56.8125C57.5671 14.0531 58.2412 13.9355 58.835 13.7129C59.4411 13.4779 59.9544 13.1562 60.375 12.748C60.7956 12.3398 61.111 11.8574 61.3213 11.3008C61.5439 10.7441 61.6553 10.138 61.6553 9.48242C61.6553 8.76497 61.5439 8.11556 61.3213 7.53418C61.111 6.94043 60.7956 6.42708 60.375 5.99414C59.9544 5.5612 59.4411 5.22721 58.835 4.99219C58.2412 4.75716 57.5671 4.63346 56.8125 4.62109H52.2295V14.0654ZM86.1475 15.8838H74.9775V24.3262H88.0215V28H70.5059V0.984375H87.9287V4.67676H74.9775V12.2842H86.1475V15.8838ZM102.16 17.5166H97.5957V28H93.1426V0.984375H101.715C103.113 0.996745 104.399 1.17611 105.574 1.52246C106.749 1.86882 107.764 2.37598 108.617 3.04395C109.458 3.72428 110.114 4.57161 110.584 5.58594C111.054 6.58789 111.289 7.76302 111.289 9.11133C111.289 10.0391 111.165 10.8802 110.918 11.6348C110.683 12.3893 110.349 13.0697 109.916 13.6758C109.483 14.2819 108.964 14.8138 108.357 15.2715C107.751 15.7292 107.077 16.125 106.335 16.459L112.105 27.7588V28H107.337L102.16 17.5166ZM97.5957 13.8799H101.771C102.562 13.8675 103.273 13.75 103.904 13.5273C104.548 13.2923 105.092 12.9583 105.537 12.5254C105.933 12.1543 106.242 11.6966 106.465 11.1523C106.688 10.6081 106.799 9.98958 106.799 9.29688C106.799 8.51758 106.675 7.83724 106.428 7.25586C106.193 6.66211 105.84 6.16732 105.37 5.77148C104.937 5.40039 104.411 5.12207 103.793 4.93652C103.174 4.73861 102.482 4.63346 101.715 4.62109H97.5957V13.8799ZM129.027 21.7842H120.548L118.711 28H114.072L122.867 0.984375H126.819L135.466 28H130.846L129.027 21.7842ZM121.68 17.9619H127.933L124.834 7.27441L121.68 17.9619Z" fill="black"/>
</svg>
